# Blender 3.6.18
# www.blender.org
mtllib becher.mtl
o Zylinder
v 0.442064 4.940588 -5.441431
v 1.489336 5.052982 -5.233341
v 1.626934 4.846826 -5.299003
v 2.604285 4.929214 -4.787601
v 3.438087 4.926951 -4.047523
v 3.942996 4.944260 -3.152090
v 4.254584 4.940108 -2.026807
v 4.188801 4.937093 -0.918340
v 3.819474 4.937117 0.153079
v 2.837497 4.925927 1.336713
v 1.896001 4.957050 1.847738
v 1.173109 4.928150 2.074798
v 0.061592 4.948355 2.133008
v -1.335542 4.908334 1.721764
v -2.178133 4.953178 1.055005
v -2.712395 4.944096 0.414077
v -3.062624 4.941471 -0.258679
v -3.326669 4.944637 -1.306019
v -3.172073 4.925317 -2.817855
v -2.466557 4.925750 -4.096330
v -1.614089 4.951259 -4.818914
v -0.619794 4.925660 -5.318442
v 1.454939 5.144090 -5.039476
v 2.098318 5.100666 -4.709877
v 2.717735 5.149847 -4.359608
v 3.518840 5.145061 -3.374421
v 3.860009 5.145673 -2.603689
v 3.962287 5.144632 -1.382563
v 3.503036 5.099050 0.023745
v 3.876927 5.150283 -0.599129
v 2.626055 5.103152 1.062095
v 3.219775 5.152244 0.625240
v 1.877639 5.143359 1.599491
v 0.843040 5.146310 1.861073
v -0.437117 5.134853 1.743314
v -1.782073 5.101401 0.991378
v -1.232952 5.152244 1.492906
v -2.284637 5.145372 0.560243
v -2.837567 5.146356 -0.472087
v -3.018992 5.139348 -2.059371
v -3.086203 5.151291 -1.256110
v -2.617408 5.142124 -3.344588
v -1.831308 5.142646 -4.311133
v -0.886398 5.137438 -4.896989
v 0.235795 5.148601 -5.158445
v 0.733150 -3.884417 -4.592893
v 2.752578 -3.827636 -3.557080
v 1.896329 -3.884459 -4.242672
v 3.256596 -3.884566 -2.622313
v 3.402873 -3.902895 -1.485100
v 3.146991 -3.886273 -0.451536
v 2.760595 -3.836105 0.230361
v 2.180281 -3.877542 0.730736
v 1.379103 -3.899017 1.141163
v 0.175391 -3.875654 1.290215
v -0.923533 -3.885441 0.938061
v -1.812091 -3.873436 0.233355
v -2.373559 -3.853668 -0.784511
v -2.474550 -3.906137 -1.806560
v -2.245422 -3.904357 -2.740904
v -1.868050 -3.826319 -3.500768
v -1.222756 -3.870321 -4.066728
v -0.380114 -3.902475 -4.459331
v 1.188674 -3.951564 -4.373458
v 1.946602 -3.974653 -4.014079
v 2.645379 -3.937181 -3.428297
v 3.031129 -3.963977 -2.720483
v 3.264039 -3.935645 -1.977755
v 3.150486 -3.967103 -0.867146
v 2.746474 -3.949965 -0.039187
v 1.422599 -3.973277 0.976825
v 2.277719 -3.897571 0.526252
v 0.452507 -3.958951 1.146299
v -1.238460 -3.976044 0.574980
v -0.322251 -3.892129 1.070144
v -1.953537 -3.962489 -0.220993
v -2.360080 -3.943716 -1.557324
v -2.147650 -3.969280 -2.626133
v -1.675018 -3.951332 -3.481174
v 0.084642 -3.976905 -4.433378
v -0.904789 -3.892129 -4.136371
vn 0.3068 0.1735 -0.9358
vn 0.3365 -0.7013 -0.6285
vn 0.0667 -0.6948 -0.7161
vn 0.1839 0.6995 -0.6906
vn -0.1977 0.9522 0.2330
vn 0.5167 0.3898 -0.7623
vn 0.7126 0.4047 -0.5731
vn 0.8449 0.3973 -0.3581
vn -0.2977 0.9358 0.1888
vn -0.3043 0.9499 0.0715
vn 0.9068 0.4116 -0.0909
vn 0.9156 0.3668 0.1646
vn -0.3226 0.9435 -0.0757
vn 0.3090 0.9448 0.1093
vn 0.8120 0.3725 0.4493
vn 0.2464 0.9467 0.2073
vn 0.5726 0.3902 0.7210
vn -0.1332 0.9514 -0.2776
vn 0.3504 0.3927 0.8503
vn -0.0123 0.9529 -0.3031
vn 0.1731 0.3720 0.9120
vn -0.1054 0.4219 0.9005
vn -0.1494 0.9499 0.2744
vn -0.4335 0.3191 0.8428
vn -0.6324 0.4096 0.6575
vn 0.2458 0.9472 -0.2060
vn -0.7690 0.4073 0.4926
vn 0.3481 0.9353 -0.0639
vn -0.8519 0.3994 0.3388
vn -0.3605 0.9320 0.0370
vn -0.9324 0.3564 0.0606
vn 0.3042 0.9526 -0.0003
vn -0.8715 0.4074 -0.2729
vn 0.2645 0.9548 0.1355
vn -0.7085 0.4023 -0.5799
vn -0.4956 0.4227 -0.7587
vn 0.1226 0.9377 0.3251
vn -0.2581 0.4002 -0.8794
vn 0.0062 0.9423 0.3346
vn -0.0032 0.3899 -0.9208
vn -0.1932 -0.7100 -0.6772
vn 0.6809 -0.6947 -0.2319
vn 0.6127 -0.6031 -0.5107
vn -0.7036 -0.7093 -0.0434
vn -0.7311 -0.6394 0.2378
vn -0.1086 0.9058 0.4096
vn -0.1871 0.6470 0.7392
vn -0.4704 -0.1079 0.8758
vn 0.6576 -0.7015 0.2747
vn 0.6276 -0.5808 0.5184
vn -0.5575 -0.6857 0.4680
vn -0.3310 -0.7057 0.6265
vn -0.4184 -0.6704 -0.6128
vn -0.6471 -0.5656 -0.5112
vn -0.0740 -0.6895 0.7205
vn 0.2084 -0.7063 0.6766
vn 0.7069 -0.7061 0.0404
vn -0.6497 -0.7182 -0.2492
vn 0.4136 -0.6909 0.5929
vn -0.6889 0.6975 -0.1971
vn -0.6511 0.7086 0.2722
vn -0.3815 0.7083 0.5940
vn -0.8105 0.3823 -0.4437
vn -0.5285 0.5488 -0.6477
vn -0.6327 0.0253 -0.7740
vn 0.6686 0.7027 0.2434
vn -0.2364 0.7006 -0.6733
vn 0.5620 0.6788 0.4726
vn 0.2217 0.9413 0.2544
vn 0.3990 0.5658 0.7216
vn -0.0154 0.6876 -0.7259
vn 0.2485 0.5358 -0.8070
vn 0.1233 0.9429 -0.3095
vn -0.6063 0.6239 0.4930
vn 0.0902 0.7000 0.7084
vn 0.4394 0.6979 -0.5656
vn 0.6083 0.1849 -0.7719
vn -0.7694 0.6340 0.0780
vn 0.6379 0.6828 -0.3562
vn -0.6068 0.6823 -0.4077
vn 0.7510 0.6592 -0.0394
vt 0.950867 0.992977
vt 0.918072 0.504278
vt 0.985459 0.503341
vt 0.955629 0.999718
vt 0.888913 0.999718
vt 0.906161 0.995677
vt 0.858182 0.995902
vt 0.812710 0.996224
vt 0.831834 0.999718
vt 0.793025 0.999718
vt 0.766410 0.996831
vt 0.718750 0.995841
vt 0.737894 0.999718
vt 0.702286 0.999718
vt 0.670386 0.996925
vt 0.639997 0.999718
vt 0.607514 0.996332
vt 0.565233 0.999718
vt 0.562606 0.996584
vt 0.516503 0.999718
vt 0.531163 0.995631
vt 0.482549 0.996755
vt 0.421253 0.999718
vt 0.422549 0.995690
vt 0.375412 0.996565
vt 0.357302 0.999718
vt 0.343946 0.996015
vt 0.304797 0.999718
vt 0.312398 0.996078
vt 0.267757 0.999718
vt 0.263904 0.996543
vt 0.231311 0.999718
vt 0.201382 0.996705
vt 0.171064 0.999718
vt 0.140039 0.996435
vt 0.093750 0.996383
vt 0.062924 0.999718
vt 0.045653 0.995455
vt 0.010664 0.999718
vt 0.001414 0.996101
vt 0.000186 0.503341
vt 0.045932 0.502470
vt 0.803751 0.504434
vt 0.860447 0.505297
vt 0.242634 0.504174
vt 0.296337 0.504496
vt 0.955241 0.999718
vt 0.950871 0.999718
vt 0.921875 0.999718
vt 0.682432 0.503579
vt 0.640625 0.505297
vt 0.360577 0.503701
vt 0.421875 0.502783
vt 0.097408 0.503796
vt 0.143432 0.505297
vt 0.484375 0.503549
vt 0.547982 0.502745
vt 0.817101 0.028798
vt 0.519556 0.231414
vt 0.686814 0.472390
vt 0.741462 0.503215
vt 0.186853 0.502224
vt 0.599442 0.503367
vt 0.701448 0.999718
vt 0.807744 0.999718
vt 0.906410 0.999718
vt 0.669697 0.999718
vt 0.610416 0.999718
vt 0.606965 0.999718
vt 0.198317 0.999718
vt 0.556059 0.999718
vt 0.141342 0.999718
vt 0.114061 0.999718
vt 0.080246 0.999718
vt 0.498447 0.999718
vt 0.998493 0.999718
vt 0.455246 0.999718
vt 0.458748 0.999718
vt 0.856607 0.999718
vt 0.400879 0.999718
vt 0.397501 0.999718
vt 0.387913 0.999718
vt 0.766067 0.999718
vt 0.337024 0.999718
vt 0.997507 0.996101
vt 0.650526 0.999718
vt 0.953861 0.358966
vt 0.979303 0.249883
vt 0.873038 0.443361
vt 0.953861 0.141034
vt 0.896643 0.071314
vt 0.641034 0.046139
vt 0.571314 0.103356
vt 0.535407 0.161112
vt 0.606518 0.431281
vt 0.538622 0.339656
vt 0.772657 0.480043
vt 0.727343 0.019957
vt 0.256943 0.999718
s 1
usemtl Material.001
f 3/1/1 48/2/2 46/3/3
f 2/4/4 25/5/5 4/6/6
f 4/6/6 25/5/5 5/7/7
f 6/8/8 26/9/9 27/10/10
f 6/8/8 27/10/10 7/11/11
f 8/12/12 28/13/13 30/14/14
f 8/12/12 30/14/14 9/15/15
f 9/15/15 32/16/16 10/17/17
f 10/17/17 32/16/16 33/18/18
f 10/17/17 33/18/18 11/19/19
f 11/19/19 34/20/20 12/21/21
f 12/21/21 34/20/20 13/22/22
f 13/22/22 37/23/23 14/24/24
f 15/25/25 37/23/23 38/26/26
f 16/27/27 39/28/28 17/29/29
f 17/29/29 41/30/30 18/31/31
f 18/31/31 40/32/32 19/33/33
f 19/33/33 42/34/34 20/35/35
f 21/36/36 44/37/37 22/38/38
f 22/38/38 45/39/39 1/40/40
f 22/38/38 46/41/3 63/42/41
f 5/7/7 49/43/42 47/44/43
f 18/31/31 59/45/44 58/46/45
f 23/47/46 64/48/47 24/49/48
f 51/50/49 9/15/15 52/51/50
f 14/24/24 57/52/51 56/53/52
f 20/35/35 62/54/53 61/55/54
f 12/21/21 55/56/55 54/57/56
f 54/58/56 59/59/44 63/60/41
f 62/54/53 22/38/38 63/42/41
f 7/11/11 50/61/57 49/43/42
f 19/33/33 60/62/58 59/45/44
f 4/6/6 47/44/43 48/2/2
f 10/17/17 53/63/59 52/51/50
f 16/27/27 58/46/45 57/52/51
f 55/56/55 14/24/24 56/53/52
f 19/33/33 61/55/54 60/62/58
f 10/17/17 54/57/56 53/63/59
f 69/64/60 67/65/61 65/66/62
f 8/12/12 51/50/49 50/61/57
f 29/67/63 72/68/64 31/69/65
f 40/32/32 78/70/66 42/34/34
f 31/69/65 71/71/67 33/18/18
f 42/34/34 79/72/68 43/73/69
f 43/73/69 81/74/70 44/37/37
f 33/18/18 73/75/71 34/20/20
f 45/76/39 64/48/47 23/47/46
f 34/20/20 75/77/72 35/78/73
f 25/5/5 65/66/62 66/79/74
f 44/37/37 80/80/75 45/39/39
f 25/5/5 66/79/74 26/9/9
f 35/78/73 74/81/76 36/82/77
f 26/9/9 68/83/78 27/10/10
f 36/82/77 76/84/79 38/26/26
f 27/10/10 68/83/78 28/13/13
f 38/26/26 76/84/79 39/28/28
f 28/13/13 69/64/60 29/67/63
f 1/85/40 2/4/4 3/1/1
f 23/47/46 24/49/48 25/5/5
f 30/14/14 29/67/63 32/16/16
f 32/16/16 29/67/63 31/69/65
f 32/16/16 31/69/65 33/18/18
f 37/23/23 35/78/73 36/82/77
f 37/23/23 36/82/77 38/26/26
f 2/4/4 45/76/39 23/47/46
f 47/44/43 49/43/42 48/2/2
f 75/77/72 73/75/71 74/81/76
f 2/4/4 23/47/46 25/5/5
f 5/7/7 25/5/5 26/9/9
f 6/8/8 5/7/7 26/9/9
f 7/11/11 27/10/10 28/13/13
f 8/12/12 7/11/11 28/13/13
f 9/15/15 30/14/14 32/16/16
f 11/19/19 33/18/18 34/20/20
f 13/22/22 34/20/20 35/78/73
f 13/22/22 35/78/73 37/23/23
f 15/25/25 14/24/24 37/23/23
f 16/27/27 15/25/25 38/26/26
f 16/27/27 38/26/26 39/28/28
f 17/29/29 39/28/28 41/30/30
f 18/31/31 41/30/30 40/32/32
f 19/33/33 40/32/32 42/34/34
f 20/35/35 42/34/34 43/73/69
f 21/36/36 20/35/35 43/73/69
f 21/36/36 43/73/69 44/37/37
f 22/38/38 44/37/37 45/39/39
f 22/38/38 1/40/40 46/41/3
f 29/67/63 69/64/60 70/86/80
f 5/7/7 6/8/8 49/43/42
f 11/19/19 12/21/21 54/57/56
f 14/24/24 15/25/25 57/52/51
f 20/35/35 21/36/36 62/54/53
f 6/8/8 7/11/11 49/43/42
f 12/21/21 13/22/22 55/56/55
f 18/31/31 19/33/33 59/45/44
f 49/87/42 50/88/57 48/89/2
f 51/90/49 53/91/59 54/58/56
f 56/92/52 57/93/51 59/59/44
f 57/93/51 58/94/45 59/59/44
f 62/95/53 63/60/41 60/96/58
f 63/60/41 46/97/3 50/88/57
f 46/97/3 48/89/2 50/88/57
f 54/58/56 55/98/55 59/59/44
f 55/98/55 56/92/52 59/59/44
f 59/59/44 60/96/58 63/60/41
f 50/88/57 51/90/49 54/58/56
f 63/60/41 50/88/57 54/58/56
f 3/1/1 4/6/6 48/2/2
f 9/15/15 10/17/17 52/51/50
f 15/25/25 16/27/27 57/52/51
f 62/54/53 21/36/36 22/38/38
f 4/6/6 5/7/7 47/44/43
f 16/27/27 17/29/29 58/46/45
f 7/11/11 8/12/12 50/61/57
f 55/56/55 13/22/22 14/24/24
f 19/33/33 20/35/35 61/55/54
f 10/17/17 11/19/19 54/57/56
f 17/29/29 18/31/31 58/46/45
f 80/80/75 79/72/68 78/70/66
f 77/99/81 76/84/79 78/70/66
f 74/81/76 73/75/71 71/71/67
f 71/71/67 70/86/80 69/64/60
f 69/64/60 68/83/78 67/65/61
f 66/79/74 65/66/62 67/65/61
f 65/66/62 64/48/47 80/80/75
f 76/84/79 74/81/76 78/70/66
f 65/66/62 80/80/75 74/81/76
f 80/80/75 78/70/66 74/81/76
f 74/81/76 71/71/67 65/66/62
f 71/71/67 69/64/60 65/66/62
f 8/12/12 9/15/15 51/50/49
f 29/67/63 70/86/80 72/68/64
f 40/32/32 77/99/81 78/70/66
f 42/34/34 78/70/66 79/72/68
f 31/69/65 72/68/64 71/71/67
f 43/73/69 79/72/68 81/74/70
f 33/18/18 71/71/67 73/75/71
f 45/76/39 80/80/75 64/48/47
f 34/20/20 73/75/71 75/77/72
f 25/5/5 24/49/48 65/66/62
f 44/37/37 81/74/70 80/80/75
f 35/78/73 75/77/72 74/81/76
f 26/9/9 66/79/74 67/65/61
f 26/9/9 67/65/61 68/83/78
f 24/49/48 64/48/47 65/66/62
f 36/82/77 74/81/76 76/84/79
f 28/13/13 68/83/78 69/64/60
f 39/28/28 76/84/79 77/99/81
f 40/32/32 39/28/28 77/99/81
f 3/1/1 2/4/4 4/6/6
f 30/14/14 28/13/13 29/67/63
f 41/30/30 39/28/28 40/32/32
f 2/4/4 1/85/40 45/76/39
f 52/51/50 53/63/59 51/50/49
f 61/55/54 62/54/53 60/62/58
f 72/68/64 70/86/80 71/71/67
f 81/74/70 79/72/68 80/80/75
f 1/85/40 3/1/1 46/3/3
